<svg xmlns="http://www.w3.org/2000/svg" viewBox="0 0 500 700" width="100%" height="100%">
  <defs>
    <radialGradient id="sun-grad" cx="50%" cy="50%" r="50%">
      <stop offset="0%" stop-color="#FFE685"/>
      <stop offset="65%" stop-color="#F5B842"/>
      <stop offset="100%" stop-color="#DE8C23"/>
    </radialGradient>
    <radialGradient id="moon-grad" cx="40%" cy="40%" r="60%">
      <stop offset="0%" stop-color="#FFF0A6"/>
      <stop offset="70%" stop-color="#F5C042"/>
      <stop offset="100%" stop-color="#D98A18"/>
    </radialGradient>
    <linearGradient id="terracotta-flower" x1="0%" y1="0%" x2="100%" y2="100%">
      <stop offset="0%" stop-color="#F79F68"/>
      <stop offset="60%" stop-color="#DE6B35"/>
      <stop offset="100%" stop-color="#A84413"/>
    </linearGradient>

    <g id="celestial-sun">
      <path d="M 0,-34 Q 4,-48 0,-62 Q -4,-48 0,-34 Z" fill="#E89A38"/>
      <path d="M 0,34 Q 4,48 0,62 Q -4,48 0,34 Z" fill="#E89A38"/>
      <path d="M -34,0 Q -48,4 -62,0 Q -48,-4 -34,0 Z" fill="#E89A38"/>
      <path d="M 34,0 Q 48,4 62,0 Q 48,-4 34,0 Z" fill="#E89A38"/>
      <path d="M -24,-24 Q -35,-42 -44,-44 Q -42,-35 -24,-24 Z" fill="#F5B842"/>
      <path d="M 24,-24 Q 35,-42 44,-44 Q 42,-35 24,-24 Z" fill="#F5B842"/>
      <path d="M -24,24 Q -35,42 -44,44 Q -42,35 -24,24 Z" fill="#F5B842"/>
      <path d="M 24,24 Q 35,42 44,44 Q 42,35 24,24 Z" fill="#F5B842"/>
      <path d="M 13,-31 L 20,-48 L 7,-33 Z" fill="#DE8C23"/>
      <path d="M -13,-31 L -20,-48 L -7,-33 Z" fill="#DE8C23"/>
      <path d="M 31,-13 L 48,-20 L 33,-7 Z" fill="#DE8C23"/>
      <path d="M -31,-13 L -48,-20 L -33,-7 Z" fill="#DE8C23"/>
      <path d="M 13,31 L 20,48 L 7,33 Z" fill="#DE8C23"/>
      <path d="M -13,31 L -20,48 L -7,33 Z" fill="#DE8C23"/>
      <path d="M 31,13 L 48,20 L 33,7 Z" fill="#DE8C23"/>
      <path d="M -31,13 L -48,20 L -33,7 Z" fill="#DE8C23"/>
      <circle cx="0" cy="0" r="34" fill="url(#sun-grad)"/>
      <circle cx="0" cy="0" r="32" fill="none" stroke="#D17B1B" stroke-width="1.2"/>
      <path d="M -14,-4 Q -9,-10 -4,-4" stroke="#663A0A" stroke-width="2.2" stroke-linecap="round" fill="none"/>
      <path d="M 4,-4 Q 9,-10 14,-4" stroke="#663A0A" stroke-width="2.2" stroke-linecap="round" fill="none"/>
      <circle cx="-16" cy="4" r="5" fill="#E86B43" opacity="0.6"/>
      <circle cx="16" cy="4" r="5" fill="#E86B43" opacity="0.6"/>
      <path d="M -8,8 Q 0,16 8,8" stroke="#663A0A" stroke-width="2.2" stroke-linecap="round" fill="none"/>
    </g>

    <g id="celestial-moon">
      <path d="M 0,-28 A 28 28 0 0 0 0,28 A 22 22 0 0 1 0,-28 Z" fill="url(#moon-grad)"/>
      <path d="M -6,-4 Q -2,-9 2,-4" stroke="#663A0A" stroke-width="1.8" stroke-linecap="round" fill="none"/>
      <circle cx="-3" cy="2" r="3.5" fill="#E86B43" opacity="0.5"/>
      <path d="M -4,7 Q 0,11 3,7" stroke="#663A0A" stroke-width="1.8" stroke-linecap="round" fill="none"/>
    </g>

    <g id="terracotta-blossom">
      <ellipse cx="0" cy="-14" rx="8" ry="13" fill="url(#terracotta-flower)"/>
      <ellipse cx="14" cy="0" rx="8" ry="13" transform="rotate(90 14 0)" fill="url(#terracotta-flower)"/>
      <ellipse cx="0" cy="14" rx="8" ry="13" fill="url(#terracotta-flower)"/>
      <ellipse cx="-14" cy="0" rx="8" ry="13" transform="rotate(90 -14 0)" fill="url(#terracotta-flower)"/>
      <circle cx="0" cy="0" r="7" fill="#FCE881"/>
      <circle cx="0" cy="0" r="4" fill="#E88A1A"/>
    </g>

    <g id="boho-star">
      <path d="M 0,-10 Q 0.8,-1.5 10,0 Q 0.8,1.5 0,10 Q -0.8,1.5 -10,0 Q -0.8,-1.5 0,-10 Z" fill="#F5B842"/>
    </g>
    <g id="boho-star-sm">
      <path d="M 0,-6 Q 0.5,-1 6,0 Q 0.5,1 0,6 Q -0.5,1 -6,0 Q -0.5,-1 0,-6 Z" fill="#DE8C23"/>
    </g>
  </defs>

  <rect width="500" height="700" fill="#FAF7EF" rx="4"/>

  <path d="M 50,70 Q 30,220 50,350 T 45,630" stroke="#5E7D52" stroke-width="2.5" fill="none" stroke-linecap="round"/>
  <path d="M 450,70 Q 470,220 450,350 T 455,630" stroke="#5E7D52" stroke-width="2.5" fill="none" stroke-linecap="round"/>

  <g transform="translate(42, 110) rotate(-35)"><ellipse cx="0" cy="0" rx="6" ry="14" fill="#6B8E5F"/></g>
  <g transform="translate(56, 170) rotate(30)"><ellipse cx="0" cy="0" rx="6" ry="14" fill="#5E7D52"/></g>
  <g transform="translate(38, 230) rotate(-30)"><ellipse cx="0" cy="0" rx="6" ry="14" fill="#6B8E5F"/></g>
  <g transform="translate(56, 290) rotate(35)"><ellipse cx="0" cy="0" rx="6" ry="14" fill="#5E7D52"/></g>
  <g transform="translate(40, 360) rotate(-25)"><ellipse cx="0" cy="0" rx="6" ry="14" fill="#6B8E5F"/></g>
  <g transform="translate(58, 430) rotate(30)"><ellipse cx="0" cy="0" rx="6" ry="14" fill="#5E7D52"/></g>
  <g transform="translate(38, 500) rotate(-35)"><ellipse cx="0" cy="0" rx="6" ry="14" fill="#6B8E5F"/></g>
  <g transform="translate(54, 570) rotate(25)"><ellipse cx="0" cy="0" rx="6" ry="14" fill="#5E7D52"/></g>

  <g transform="translate(458, 110) rotate(35)"><ellipse cx="0" cy="0" rx="6" ry="14" fill="#6B8E5F"/></g>
  <g transform="translate(444, 170) rotate(-30)"><ellipse cx="0" cy="0" rx="6" ry="14" fill="#5E7D52"/></g>
  <g transform="translate(462, 230) rotate(30)"><ellipse cx="0" cy="0" rx="6" ry="14" fill="#6B8E5F"/></g>
  <g transform="translate(444, 290) rotate(-35)"><ellipse cx="0" cy="0" rx="6" ry="14" fill="#5E7D52"/></g>
  <g transform="translate(460, 360) rotate(25)"><ellipse cx="0" cy="0" rx="6" ry="14" fill="#6B8E5F"/></g>
  <g transform="translate(442, 430) rotate(-30)"><ellipse cx="0" cy="0" rx="6" ry="14" fill="#5E7D52"/></g>
  <g transform="translate(462, 500) rotate(35)"><ellipse cx="0" cy="0" rx="6" ry="14" fill="#6B8E5F"/></g>
  <g transform="translate(446, 570) rotate(-25)"><ellipse cx="0" cy="0" rx="6" ry="14" fill="#5E7D52"/></g>

  <g transform="translate(48, 140)"><use href="#terracotta-blossom" transform="scale(0.75)"/></g>
  <g transform="translate(452, 140)"><use href="#terracotta-blossom" transform="scale(0.75)"/></g>
  <g transform="translate(45, 260)"><use href="#terracotta-blossom" transform="scale(0.7)"/></g>
  <g transform="translate(455, 260)"><use href="#terracotta-blossom" transform="scale(0.7)"/></g>
  <g transform="translate(48, 400)"><use href="#terracotta-blossom" transform="scale(0.75)"/></g>
  <g transform="translate(452, 400)"><use href="#terracotta-blossom" transform="scale(0.75)"/></g>
  <g transform="translate(45, 530)"><use href="#terracotta-blossom" transform="scale(0.7)"/></g>
  <g transform="translate(455, 530)"><use href="#terracotta-blossom" transform="scale(0.7)"/></g>

  <g transform="translate(75, 90)"><use href="#boho-star"/></g>
  <g transform="translate(425, 90)"><use href="#boho-star"/></g>
  <g transform="translate(70, 200)"><use href="#boho-star-sm"/></g>
  <g transform="translate(430, 200)"><use href="#boho-star-sm"/></g>
  <g transform="translate(75, 460)"><use href="#boho-star-sm"/></g>
  <g transform="translate(425, 460)"><use href="#boho-star-sm"/></g>
  <g transform="translate(70, 600)"><use href="#boho-star"/></g>
  <g transform="translate(430, 600)"><use href="#boho-star"/></g>

  <g transform="translate(250, 95)">
    <use href="#celestial-sun" transform="scale(0.85)" />
  </g>

  <g transform="translate(250, 620)">
    <use href="#celestial-moon" transform="scale(1.1) rotate(20)" />
    <g transform="translate(-45, -10)"><use href="#boho-star"/></g>
    <g transform="translate(45, -10)"><use href="#boho-star"/></g>
    <g transform="translate(-70, 8)"><use href="#boho-star-sm"/></g>
    <g transform="translate(70, 8)"><use href="#boho-star-sm"/></g>
  </g>
</svg>
