<svg xmlns="http://www.w3.org/2000/svg" viewBox="0 0 600 800" width="100%" height="100%">
  <defs>
    <!-- Filter Shadows -->
    <filter id="gb-env-shadow" x="-30%" y="-20%" width="160%" height="150%">
      <feDropShadow dx="-6" dy="16" stdDeviation="16" flood-color="#000000" flood-opacity="0.25"/>
      <feDropShadow dx="-1" dy="4" stdDeviation="6" flood-color="#000000" flood-opacity="0.14"/>
    </filter>

    <filter id="gb-card-shadow" x="-30%" y="-20%" width="160%" height="150%">
      <feDropShadow dx="3" dy="18" stdDeviation="18" flood-color="#000000" flood-opacity="0.32"/>
      <feDropShadow dx="0" dy="4" stdDeviation="6" flood-color="#000000" flood-opacity="0.16"/>
    </filter>

    <!-- Warm Oatmeal / Linen Backdrop Gradient -->
    <radialGradient id="gb-bg-grad" cx="50%" cy="45%" r="75%">
      <stop offset="0%" stop-color="#EDE6D8"/>
      <stop offset="50%" stop-color="#E2D9C8"/>
      <stop offset="85%" stop-color="#D5CBB8"/>
      <stop offset="100%" stop-color="#C5BBA7"/>
    </radialGradient>

    <!-- Linen Texture Pattern -->
    <pattern id="gb-weave" width="10" height="10" patternUnits="userSpaceOnUse">
      <path d="M 0,2.5 L 10,2.5 M 0,7.5 L 10,7.5" stroke="#C0B4A0" stroke-width="0.8" opacity="0.45"/>
      <path d="M 0,1 L 10,1 M 0,6 L 10,6" stroke="#FFFFFF" stroke-width="0.6" opacity="0.5"/>
      <path d="M 2.5,0 L 2.5,10 M 7.5,0 L 7.5,10" stroke="#B8AC98" stroke-width="0.8" opacity="0.4"/>
      <path d="M 1,0 L 1,10 M 6,0 L 6,10" stroke="#FFFFFF" stroke-width="0.6" opacity="0.45"/>
    </pattern>

    <!-- Kraft Paper Envelope Gradient -->
    <linearGradient id="gb-kraft-paper" x1="0%" y1="0%" x2="100%" y2="100%">
      <stop offset="0%" stop-color="#B3936F"/>
      <stop offset="50%" stop-color="#A5835F"/>
      <stop offset="100%" stop-color="#93724E"/>
    </linearGradient>

    <!-- Striped Green Liner Pattern -->
    <pattern id="gb-green-stripes" width="16" height="16" patternUnits="userSpaceOnUse">
      <rect width="16" height="16" fill="#FDFBF7"/>
      <rect x="0" y="0" width="8" height="16" fill="#58724E"/>
    </pattern>

    <clipPath id="gb-card-clip">
      <rect x="140" y="140" width="380" height="532" rx="14"/>
    </clipPath>
  </defs>

  <!-- 1. BACKDROP: Beige Oatmeal Linen Surface -->
  <rect width="600" height="800" fill="url(#gb-bg-grad)"/>
  <rect width="600" height="800" fill="url(#gb-weave)"/>

  <!-- 2. KRAFT ENVELOPE: Behind card on the left with green striped liner -->
  <g filter="url(#gb-env-shadow)">
    <!-- Envelope Pocket Body -->
    <rect x="65" y="210" width="410" height="470" rx="14" fill="url(#gb-kraft-paper)"/>
    <!-- Triangular open flap pointing top-left -->
    <path d="M 65,290 L 130,115 L 360,290 Z" fill="url(#gb-kraft-paper)"/>
    <!-- Green Striped Liner inside throat -->
    <path d="M 85,285 L 136,135 L 340,285 Z" fill="url(#gb-green-stripes)"/>
    <line x1="65" y1="290" x2="360" y2="290" stroke="#7A5A39" stroke-width="1.8" opacity="0.35"/>
  </g>

  <!-- 3. INVITATION CARD: Crisp White Surface with Folk Floral Motif Border -->
  <g filter="url(#gb-card-shadow)">
    <g clip-path="url(#gb-card-clip)">
      <!-- Pure White Card Surface -->
      <rect x="140" y="140" width="380" height="532" fill="#FFFFFF"/>
      <!-- Soft paper border stroke -->
      <rect x="140" y="140" width="380" height="532" fill="none" stroke="rgba(0,0,0,0.06)" stroke-width="1"/>

      <!-- Botanical Folk Art Floral Vine Border -->
      <g transform="translate(140, 140) scale(0.76, 0.76)">
        <g id="garden-blooms-folk-border">
    <!-- Main Framing Vine Stems -->
    <path d="
      M 45,55 
      Q 120,40 250,48 Q 380,40 455,55
      Q 465,180 458,350 Q 465,520 455,645
      Q 380,660 250,652 Q 120,660 45,645
      Q 35,520 42,350 Q 35,180 45,55 Z" 
      fill="none" stroke="#3A5335" stroke-width="2.2" stroke-linecap="round"/>
    
    <!-- Secondary delicate winding inner vine -->
    <path d="
      M 60,70 
      Q 140,62 250,66 Q 360,62 440,70
      Q 448,190 442,350 Q 448,510 440,630
      Q 360,638 250,634 Q 140,638 60,630
      Q 52,510 58,350 Q 52,190 60,70 Z" 
      fill="none" stroke="#526F4A" stroke-width="1.2" stroke-linecap="round" stroke-dasharray="8 4"/>
  <g transform="translate(80, 50) rotate(-15)">
        <!-- Flower Leaves -->
        <path d="M 0,0 C -6,-12 -16,-12 -14,0 C -12,8 -4,6 0,0 Z" fill="#4B663F"/>
        <path d="M 0,0 C 6,-12 16,-12 14,0 C 12,8 4,6 0,0 Z" fill="#4B663F"/>
        <!-- Petals -->
        <circle cx="0" cy="0" r="7.5" fill="#C93B3B"/>
        <circle cx="-3" cy="-2" r="4.5" fill="#E65858"/>
        <circle cx="3" cy="-2" r="4.5" fill="#E65858"/>
        <circle cx="0" cy="2" r="4.5" fill="#D64545"/>
        <circle cx="0" cy="0" r="2.8" fill="#FFF0D4"/>
        <circle cx="0" cy="0" r="1.4" fill="#C93B3B"/>
      </g><g transform="translate(120, 42) rotate(25)">
        <line x1="0" y1="0" x2="-4" y2="-8" stroke="#3A5335" stroke-width="1"/>
        <line x1="0" y1="0" x2="4" y2="-9" stroke="#3A5335" stroke-width="1"/>
        <line x1="0" y1="0" x2="0" y2="-12" stroke="#3A5335" stroke-width="1"/>
        <circle cx="-4" cy="-8" r="3.2" fill="#BA2D2D"/>
        <circle cx="-5" cy="-9" r="1" fill="#FFFFFF" opacity="0.6"/>
        <circle cx="4" cy="-9" r="3.2" fill="#D44242"/>
        <circle cx="3" cy="-10" r="1" fill="#FFFFFF" opacity="0.6"/>
        <circle cx="0" cy="-13" r="3.4" fill="#C93434"/>
        <circle cx="-1" cy="-14" r="1" fill="#FFFFFF" opacity="0.6"/>
      </g><g transform="translate(165, 54) rotate(-30)">
        <!-- Flower Leaves -->
        <path d="M 0,0 C -6,-12 -16,-12 -14,0 C -12,8 -4,6 0,0 Z" fill="#4B663F"/>
        <path d="M 0,0 C 6,-12 16,-12 14,0 C 12,8 4,6 0,0 Z" fill="#4B663F"/>
        <!-- Petals -->
        <circle cx="0" cy="0" r="7.5" fill="#C93B3B"/>
        <circle cx="-3" cy="-2" r="4.5" fill="#E65858"/>
        <circle cx="3" cy="-2" r="4.5" fill="#E65858"/>
        <circle cx="0" cy="2" r="4.5" fill="#D64545"/>
        <circle cx="0" cy="0" r="2.8" fill="#FFF0D4"/>
        <circle cx="0" cy="0" r="1.4" fill="#C93B3B"/>
      </g><g transform="translate(210, 44) rotate(15)">
        <path d="M -4,-2 C -8,-10 0,-14 0,-16 C 0,-14 8,-10 4,-2 Z" fill="#D94848"/>
        <path d="M -2,0 C -5,-6 0,-10 0,-12 C 0,-10 5,-6 2,0 Z" fill="#FF7070"/>
        <path d="M -5,0 C -4,-6 0,-8 0,-8 C 0,-8 4,-6 5,0 Z" fill="#4B663F"/>
      </g><g transform="translate(250, 50) rotate(0)">
        <!-- Flower Leaves -->
        <path d="M 0,0 C -6,-12 -16,-12 -14,0 C -12,8 -4,6 0,0 Z" fill="#4B663F"/>
        <path d="M 0,0 C 6,-12 16,-12 14,0 C 12,8 4,6 0,0 Z" fill="#4B663F"/>
        <!-- Petals -->
        <circle cx="0" cy="0" r="7.5" fill="#C93B3B"/>
        <circle cx="-3" cy="-2" r="4.5" fill="#E65858"/>
        <circle cx="3" cy="-2" r="4.5" fill="#E65858"/>
        <circle cx="0" cy="2" r="4.5" fill="#D64545"/>
        <circle cx="0" cy="0" r="2.8" fill="#FFF0D4"/>
        <circle cx="0" cy="0" r="1.4" fill="#C93B3B"/>
      </g><g transform="translate(290, 44) rotate(-15)">
        <path d="M -4,-2 C -8,-10 0,-14 0,-16 C 0,-14 8,-10 4,-2 Z" fill="#D94848"/>
        <path d="M -2,0 C -5,-6 0,-10 0,-12 C 0,-10 5,-6 2,0 Z" fill="#FF7070"/>
        <path d="M -5,0 C -4,-6 0,-8 0,-8 C 0,-8 4,-6 5,0 Z" fill="#4B663F"/>
      </g><g transform="translate(335, 54) rotate(30)">
        <!-- Flower Leaves -->
        <path d="M 0,0 C -6,-12 -16,-12 -14,0 C -12,8 -4,6 0,0 Z" fill="#4B663F"/>
        <path d="M 0,0 C 6,-12 16,-12 14,0 C 12,8 4,6 0,0 Z" fill="#4B663F"/>
        <!-- Petals -->
        <circle cx="0" cy="0" r="7.5" fill="#C93B3B"/>
        <circle cx="-3" cy="-2" r="4.5" fill="#E65858"/>
        <circle cx="3" cy="-2" r="4.5" fill="#E65858"/>
        <circle cx="0" cy="2" r="4.5" fill="#D64545"/>
        <circle cx="0" cy="0" r="2.8" fill="#FFF0D4"/>
        <circle cx="0" cy="0" r="1.4" fill="#C93B3B"/>
      </g><g transform="translate(380, 42) rotate(-25)">
        <line x1="0" y1="0" x2="-4" y2="-8" stroke="#3A5335" stroke-width="1"/>
        <line x1="0" y1="0" x2="4" y2="-9" stroke="#3A5335" stroke-width="1"/>
        <line x1="0" y1="0" x2="0" y2="-12" stroke="#3A5335" stroke-width="1"/>
        <circle cx="-4" cy="-8" r="3.2" fill="#BA2D2D"/>
        <circle cx="-5" cy="-9" r="1" fill="#FFFFFF" opacity="0.6"/>
        <circle cx="4" cy="-9" r="3.2" fill="#D44242"/>
        <circle cx="3" cy="-10" r="1" fill="#FFFFFF" opacity="0.6"/>
        <circle cx="0" cy="-13" r="3.4" fill="#C93434"/>
        <circle cx="-1" cy="-14" r="1" fill="#FFFFFF" opacity="0.6"/>
      </g><g transform="translate(420, 50) rotate(15)">
        <!-- Flower Leaves -->
        <path d="M 0,0 C -6,-12 -16,-12 -14,0 C -12,8 -4,6 0,0 Z" fill="#4B663F"/>
        <path d="M 0,0 C 6,-12 16,-12 14,0 C 12,8 4,6 0,0 Z" fill="#4B663F"/>
        <!-- Petals -->
        <circle cx="0" cy="0" r="7.5" fill="#C93B3B"/>
        <circle cx="-3" cy="-2" r="4.5" fill="#E65858"/>
        <circle cx="3" cy="-2" r="4.5" fill="#E65858"/>
        <circle cx="0" cy="2" r="4.5" fill="#D64545"/>
        <circle cx="0" cy="0" r="2.8" fill="#FFF0D4"/>
        <circle cx="0" cy="0" r="1.4" fill="#C93B3B"/>
      </g><g transform="translate(458, 105) rotate(80)">
        <!-- Flower Leaves -->
        <path d="M 0,0 C -6,-12 -16,-12 -14,0 C -12,8 -4,6 0,0 Z" fill="#4B663F"/>
        <path d="M 0,0 C 6,-12 16,-12 14,0 C 12,8 4,6 0,0 Z" fill="#4B663F"/>
        <!-- Petals -->
        <circle cx="0" cy="0" r="7.5" fill="#C93B3B"/>
        <circle cx="-3" cy="-2" r="4.5" fill="#E65858"/>
        <circle cx="3" cy="-2" r="4.5" fill="#E65858"/>
        <circle cx="0" cy="2" r="4.5" fill="#D64545"/>
        <circle cx="0" cy="0" r="2.8" fill="#FFF0D4"/>
        <circle cx="0" cy="0" r="1.4" fill="#C93B3B"/>
      </g><g transform="translate(448, 155) rotate(105)">
        <line x1="0" y1="0" x2="-4" y2="-8" stroke="#3A5335" stroke-width="1"/>
        <line x1="0" y1="0" x2="4" y2="-9" stroke="#3A5335" stroke-width="1"/>
        <line x1="0" y1="0" x2="0" y2="-12" stroke="#3A5335" stroke-width="1"/>
        <circle cx="-4" cy="-8" r="3.2" fill="#BA2D2D"/>
        <circle cx="-5" cy="-9" r="1" fill="#FFFFFF" opacity="0.6"/>
        <circle cx="4" cy="-9" r="3.2" fill="#D44242"/>
        <circle cx="3" cy="-10" r="1" fill="#FFFFFF" opacity="0.6"/>
        <circle cx="0" cy="-13" r="3.4" fill="#C93434"/>
        <circle cx="-1" cy="-14" r="1" fill="#FFFFFF" opacity="0.6"/>
      </g><g transform="translate(460, 205) rotate(75)">
        <!-- Flower Leaves -->
        <path d="M 0,0 C -6,-12 -16,-12 -14,0 C -12,8 -4,6 0,0 Z" fill="#4B663F"/>
        <path d="M 0,0 C 6,-12 16,-12 14,0 C 12,8 4,6 0,0 Z" fill="#4B663F"/>
        <!-- Petals -->
        <circle cx="0" cy="0" r="7.5" fill="#C93B3B"/>
        <circle cx="-3" cy="-2" r="4.5" fill="#E65858"/>
        <circle cx="3" cy="-2" r="4.5" fill="#E65858"/>
        <circle cx="0" cy="2" r="4.5" fill="#D64545"/>
        <circle cx="0" cy="0" r="2.8" fill="#FFF0D4"/>
        <circle cx="0" cy="0" r="1.4" fill="#C93B3B"/>
      </g><g transform="translate(450, 255) rotate(95)">
        <path d="M -4,-2 C -8,-10 0,-14 0,-16 C 0,-14 8,-10 4,-2 Z" fill="#D94848"/>
        <path d="M -2,0 C -5,-6 0,-10 0,-12 C 0,-10 5,-6 2,0 Z" fill="#FF7070"/>
        <path d="M -5,0 C -4,-6 0,-8 0,-8 C 0,-8 4,-6 5,0 Z" fill="#4B663F"/>
      </g><g transform="translate(462, 305) rotate(80)">
        <!-- Flower Leaves -->
        <path d="M 0,0 C -6,-12 -16,-12 -14,0 C -12,8 -4,6 0,0 Z" fill="#4B663F"/>
        <path d="M 0,0 C 6,-12 16,-12 14,0 C 12,8 4,6 0,0 Z" fill="#4B663F"/>
        <!-- Petals -->
        <circle cx="0" cy="0" r="7.5" fill="#C93B3B"/>
        <circle cx="-3" cy="-2" r="4.5" fill="#E65858"/>
        <circle cx="3" cy="-2" r="4.5" fill="#E65858"/>
        <circle cx="0" cy="2" r="4.5" fill="#D64545"/>
        <circle cx="0" cy="0" r="2.8" fill="#FFF0D4"/>
        <circle cx="0" cy="0" r="1.4" fill="#C93B3B"/>
      </g><g transform="translate(450, 355) rotate(100)">
        <line x1="0" y1="0" x2="-4" y2="-8" stroke="#3A5335" stroke-width="1"/>
        <line x1="0" y1="0" x2="4" y2="-9" stroke="#3A5335" stroke-width="1"/>
        <line x1="0" y1="0" x2="0" y2="-12" stroke="#3A5335" stroke-width="1"/>
        <circle cx="-4" cy="-8" r="3.2" fill="#BA2D2D"/>
        <circle cx="-5" cy="-9" r="1" fill="#FFFFFF" opacity="0.6"/>
        <circle cx="4" cy="-9" r="3.2" fill="#D44242"/>
        <circle cx="3" cy="-10" r="1" fill="#FFFFFF" opacity="0.6"/>
        <circle cx="0" cy="-13" r="3.4" fill="#C93434"/>
        <circle cx="-1" cy="-14" r="1" fill="#FFFFFF" opacity="0.6"/>
      </g><g transform="translate(460, 405) rotate(85)">
        <!-- Flower Leaves -->
        <path d="M 0,0 C -6,-12 -16,-12 -14,0 C -12,8 -4,6 0,0 Z" fill="#4B663F"/>
        <path d="M 0,0 C 6,-12 16,-12 14,0 C 12,8 4,6 0,0 Z" fill="#4B663F"/>
        <!-- Petals -->
        <circle cx="0" cy="0" r="7.5" fill="#C93B3B"/>
        <circle cx="-3" cy="-2" r="4.5" fill="#E65858"/>
        <circle cx="3" cy="-2" r="4.5" fill="#E65858"/>
        <circle cx="0" cy="2" r="4.5" fill="#D64545"/>
        <circle cx="0" cy="0" r="2.8" fill="#FFF0D4"/>
        <circle cx="0" cy="0" r="1.4" fill="#C93B3B"/>
      </g><g transform="translate(448, 455) rotate(95)">
        <path d="M -4,-2 C -8,-10 0,-14 0,-16 C 0,-14 8,-10 4,-2 Z" fill="#D94848"/>
        <path d="M -2,0 C -5,-6 0,-10 0,-12 C 0,-10 5,-6 2,0 Z" fill="#FF7070"/>
        <path d="M -5,0 C -4,-6 0,-8 0,-8 C 0,-8 4,-6 5,0 Z" fill="#4B663F"/>
      </g><g transform="translate(462, 505) rotate(75)">
        <!-- Flower Leaves -->
        <path d="M 0,0 C -6,-12 -16,-12 -14,0 C -12,8 -4,6 0,0 Z" fill="#4B663F"/>
        <path d="M 0,0 C 6,-12 16,-12 14,0 C 12,8 4,6 0,0 Z" fill="#4B663F"/>
        <!-- Petals -->
        <circle cx="0" cy="0" r="7.5" fill="#C93B3B"/>
        <circle cx="-3" cy="-2" r="4.5" fill="#E65858"/>
        <circle cx="3" cy="-2" r="4.5" fill="#E65858"/>
        <circle cx="0" cy="2" r="4.5" fill="#D64545"/>
        <circle cx="0" cy="0" r="2.8" fill="#FFF0D4"/>
        <circle cx="0" cy="0" r="1.4" fill="#C93B3B"/>
      </g><g transform="translate(450, 555) rotate(110)">
        <line x1="0" y1="0" x2="-4" y2="-8" stroke="#3A5335" stroke-width="1"/>
        <line x1="0" y1="0" x2="4" y2="-9" stroke="#3A5335" stroke-width="1"/>
        <line x1="0" y1="0" x2="0" y2="-12" stroke="#3A5335" stroke-width="1"/>
        <circle cx="-4" cy="-8" r="3.2" fill="#BA2D2D"/>
        <circle cx="-5" cy="-9" r="1" fill="#FFFFFF" opacity="0.6"/>
        <circle cx="4" cy="-9" r="3.2" fill="#D44242"/>
        <circle cx="3" cy="-10" r="1" fill="#FFFFFF" opacity="0.6"/>
        <circle cx="0" cy="-13" r="3.4" fill="#C93434"/>
        <circle cx="-1" cy="-14" r="1" fill="#FFFFFF" opacity="0.6"/>
      </g><g transform="translate(458, 605) rotate(85)">
        <!-- Flower Leaves -->
        <path d="M 0,0 C -6,-12 -16,-12 -14,0 C -12,8 -4,6 0,0 Z" fill="#4B663F"/>
        <path d="M 0,0 C 6,-12 16,-12 14,0 C 12,8 4,6 0,0 Z" fill="#4B663F"/>
        <!-- Petals -->
        <circle cx="0" cy="0" r="7.5" fill="#C93B3B"/>
        <circle cx="-3" cy="-2" r="4.5" fill="#E65858"/>
        <circle cx="3" cy="-2" r="4.5" fill="#E65858"/>
        <circle cx="0" cy="2" r="4.5" fill="#D64545"/>
        <circle cx="0" cy="0" r="2.8" fill="#FFF0D4"/>
        <circle cx="0" cy="0" r="1.4" fill="#C93B3B"/>
      </g><g transform="translate(80, 650) rotate(15)">
        <!-- Flower Leaves -->
        <path d="M 0,0 C -6,-12 -16,-12 -14,0 C -12,8 -4,6 0,0 Z" fill="#4B663F"/>
        <path d="M 0,0 C 6,-12 16,-12 14,0 C 12,8 4,6 0,0 Z" fill="#4B663F"/>
        <!-- Petals -->
        <circle cx="0" cy="0" r="7.5" fill="#C93B3B"/>
        <circle cx="-3" cy="-2" r="4.5" fill="#E65858"/>
        <circle cx="3" cy="-2" r="4.5" fill="#E65858"/>
        <circle cx="0" cy="2" r="4.5" fill="#D64545"/>
        <circle cx="0" cy="0" r="2.8" fill="#FFF0D4"/>
        <circle cx="0" cy="0" r="1.4" fill="#C93B3B"/>
      </g><g transform="translate(120, 658) rotate(-25)">
        <line x1="0" y1="0" x2="-4" y2="-8" stroke="#3A5335" stroke-width="1"/>
        <line x1="0" y1="0" x2="4" y2="-9" stroke="#3A5335" stroke-width="1"/>
        <line x1="0" y1="0" x2="0" y2="-12" stroke="#3A5335" stroke-width="1"/>
        <circle cx="-4" cy="-8" r="3.2" fill="#BA2D2D"/>
        <circle cx="-5" cy="-9" r="1" fill="#FFFFFF" opacity="0.6"/>
        <circle cx="4" cy="-9" r="3.2" fill="#D44242"/>
        <circle cx="3" cy="-10" r="1" fill="#FFFFFF" opacity="0.6"/>
        <circle cx="0" cy="-13" r="3.4" fill="#C93434"/>
        <circle cx="-1" cy="-14" r="1" fill="#FFFFFF" opacity="0.6"/>
      </g><g transform="translate(165, 646) rotate(30)">
        <!-- Flower Leaves -->
        <path d="M 0,0 C -6,-12 -16,-12 -14,0 C -12,8 -4,6 0,0 Z" fill="#4B663F"/>
        <path d="M 0,0 C 6,-12 16,-12 14,0 C 12,8 4,6 0,0 Z" fill="#4B663F"/>
        <!-- Petals -->
        <circle cx="0" cy="0" r="7.5" fill="#C93B3B"/>
        <circle cx="-3" cy="-2" r="4.5" fill="#E65858"/>
        <circle cx="3" cy="-2" r="4.5" fill="#E65858"/>
        <circle cx="0" cy="2" r="4.5" fill="#D64545"/>
        <circle cx="0" cy="0" r="2.8" fill="#FFF0D4"/>
        <circle cx="0" cy="0" r="1.4" fill="#C93B3B"/>
      </g><g transform="translate(210, 656) rotate(-15)">
        <path d="M -4,-2 C -8,-10 0,-14 0,-16 C 0,-14 8,-10 4,-2 Z" fill="#D94848"/>
        <path d="M -2,0 C -5,-6 0,-10 0,-12 C 0,-10 5,-6 2,0 Z" fill="#FF7070"/>
        <path d="M -5,0 C -4,-6 0,-8 0,-8 C 0,-8 4,-6 5,0 Z" fill="#4B663F"/>
      </g><g transform="translate(250, 650) rotate(0)">
        <!-- Flower Leaves -->
        <path d="M 0,0 C -6,-12 -16,-12 -14,0 C -12,8 -4,6 0,0 Z" fill="#4B663F"/>
        <path d="M 0,0 C 6,-12 16,-12 14,0 C 12,8 4,6 0,0 Z" fill="#4B663F"/>
        <!-- Petals -->
        <circle cx="0" cy="0" r="7.5" fill="#C93B3B"/>
        <circle cx="-3" cy="-2" r="4.5" fill="#E65858"/>
        <circle cx="3" cy="-2" r="4.5" fill="#E65858"/>
        <circle cx="0" cy="2" r="4.5" fill="#D64545"/>
        <circle cx="0" cy="0" r="2.8" fill="#FFF0D4"/>
        <circle cx="0" cy="0" r="1.4" fill="#C93B3B"/>
      </g><g transform="translate(290, 656) rotate(15)">
        <path d="M -4,-2 C -8,-10 0,-14 0,-16 C 0,-14 8,-10 4,-2 Z" fill="#D94848"/>
        <path d="M -2,0 C -5,-6 0,-10 0,-12 C 0,-10 5,-6 2,0 Z" fill="#FF7070"/>
        <path d="M -5,0 C -4,-6 0,-8 0,-8 C 0,-8 4,-6 5,0 Z" fill="#4B663F"/>
      </g><g transform="translate(335, 646) rotate(-30)">
        <!-- Flower Leaves -->
        <path d="M 0,0 C -6,-12 -16,-12 -14,0 C -12,8 -4,6 0,0 Z" fill="#4B663F"/>
        <path d="M 0,0 C 6,-12 16,-12 14,0 C 12,8 4,6 0,0 Z" fill="#4B663F"/>
        <!-- Petals -->
        <circle cx="0" cy="0" r="7.5" fill="#C93B3B"/>
        <circle cx="-3" cy="-2" r="4.5" fill="#E65858"/>
        <circle cx="3" cy="-2" r="4.5" fill="#E65858"/>
        <circle cx="0" cy="2" r="4.5" fill="#D64545"/>
        <circle cx="0" cy="0" r="2.8" fill="#FFF0D4"/>
        <circle cx="0" cy="0" r="1.4" fill="#C93B3B"/>
      </g><g transform="translate(380, 658) rotate(25)">
        <line x1="0" y1="0" x2="-4" y2="-8" stroke="#3A5335" stroke-width="1"/>
        <line x1="0" y1="0" x2="4" y2="-9" stroke="#3A5335" stroke-width="1"/>
        <line x1="0" y1="0" x2="0" y2="-12" stroke="#3A5335" stroke-width="1"/>
        <circle cx="-4" cy="-8" r="3.2" fill="#BA2D2D"/>
        <circle cx="-5" cy="-9" r="1" fill="#FFFFFF" opacity="0.6"/>
        <circle cx="4" cy="-9" r="3.2" fill="#D44242"/>
        <circle cx="3" cy="-10" r="1" fill="#FFFFFF" opacity="0.6"/>
        <circle cx="0" cy="-13" r="3.4" fill="#C93434"/>
        <circle cx="-1" cy="-14" r="1" fill="#FFFFFF" opacity="0.6"/>
      </g><g transform="translate(420, 650) rotate(-15)">
        <!-- Flower Leaves -->
        <path d="M 0,0 C -6,-12 -16,-12 -14,0 C -12,8 -4,6 0,0 Z" fill="#4B663F"/>
        <path d="M 0,0 C 6,-12 16,-12 14,0 C 12,8 4,6 0,0 Z" fill="#4B663F"/>
        <!-- Petals -->
        <circle cx="0" cy="0" r="7.5" fill="#C93B3B"/>
        <circle cx="-3" cy="-2" r="4.5" fill="#E65858"/>
        <circle cx="3" cy="-2" r="4.5" fill="#E65858"/>
        <circle cx="0" cy="2" r="4.5" fill="#D64545"/>
        <circle cx="0" cy="0" r="2.8" fill="#FFF0D4"/>
        <circle cx="0" cy="0" r="1.4" fill="#C93B3B"/>
      </g><g transform="translate(42, 105) rotate(-80)">
        <!-- Flower Leaves -->
        <path d="M 0,0 C -6,-12 -16,-12 -14,0 C -12,8 -4,6 0,0 Z" fill="#4B663F"/>
        <path d="M 0,0 C 6,-12 16,-12 14,0 C 12,8 4,6 0,0 Z" fill="#4B663F"/>
        <!-- Petals -->
        <circle cx="0" cy="0" r="7.5" fill="#C93B3B"/>
        <circle cx="-3" cy="-2" r="4.5" fill="#E65858"/>
        <circle cx="3" cy="-2" r="4.5" fill="#E65858"/>
        <circle cx="0" cy="2" r="4.5" fill="#D64545"/>
        <circle cx="0" cy="0" r="2.8" fill="#FFF0D4"/>
        <circle cx="0" cy="0" r="1.4" fill="#C93B3B"/>
      </g><g transform="translate(52, 155) rotate(-105)">
        <line x1="0" y1="0" x2="-4" y2="-8" stroke="#3A5335" stroke-width="1"/>
        <line x1="0" y1="0" x2="4" y2="-9" stroke="#3A5335" stroke-width="1"/>
        <line x1="0" y1="0" x2="0" y2="-12" stroke="#3A5335" stroke-width="1"/>
        <circle cx="-4" cy="-8" r="3.2" fill="#BA2D2D"/>
        <circle cx="-5" cy="-9" r="1" fill="#FFFFFF" opacity="0.6"/>
        <circle cx="4" cy="-9" r="3.2" fill="#D44242"/>
        <circle cx="3" cy="-10" r="1" fill="#FFFFFF" opacity="0.6"/>
        <circle cx="0" cy="-13" r="3.4" fill="#C93434"/>
        <circle cx="-1" cy="-14" r="1" fill="#FFFFFF" opacity="0.6"/>
      </g><g transform="translate(40, 205) rotate(-75)">
        <!-- Flower Leaves -->
        <path d="M 0,0 C -6,-12 -16,-12 -14,0 C -12,8 -4,6 0,0 Z" fill="#4B663F"/>
        <path d="M 0,0 C 6,-12 16,-12 14,0 C 12,8 4,6 0,0 Z" fill="#4B663F"/>
        <!-- Petals -->
        <circle cx="0" cy="0" r="7.5" fill="#C93B3B"/>
        <circle cx="-3" cy="-2" r="4.5" fill="#E65858"/>
        <circle cx="3" cy="-2" r="4.5" fill="#E65858"/>
        <circle cx="0" cy="2" r="4.5" fill="#D64545"/>
        <circle cx="0" cy="0" r="2.8" fill="#FFF0D4"/>
        <circle cx="0" cy="0" r="1.4" fill="#C93B3B"/>
      </g><g transform="translate(50, 255) rotate(-95)">
        <path d="M -4,-2 C -8,-10 0,-14 0,-16 C 0,-14 8,-10 4,-2 Z" fill="#D94848"/>
        <path d="M -2,0 C -5,-6 0,-10 0,-12 C 0,-10 5,-6 2,0 Z" fill="#FF7070"/>
        <path d="M -5,0 C -4,-6 0,-8 0,-8 C 0,-8 4,-6 5,0 Z" fill="#4B663F"/>
      </g><g transform="translate(38, 305) rotate(-80)">
        <!-- Flower Leaves -->
        <path d="M 0,0 C -6,-12 -16,-12 -14,0 C -12,8 -4,6 0,0 Z" fill="#4B663F"/>
        <path d="M 0,0 C 6,-12 16,-12 14,0 C 12,8 4,6 0,0 Z" fill="#4B663F"/>
        <!-- Petals -->
        <circle cx="0" cy="0" r="7.5" fill="#C93B3B"/>
        <circle cx="-3" cy="-2" r="4.5" fill="#E65858"/>
        <circle cx="3" cy="-2" r="4.5" fill="#E65858"/>
        <circle cx="0" cy="2" r="4.5" fill="#D64545"/>
        <circle cx="0" cy="0" r="2.8" fill="#FFF0D4"/>
        <circle cx="0" cy="0" r="1.4" fill="#C93B3B"/>
      </g><g transform="translate(50, 355) rotate(-100)">
        <line x1="0" y1="0" x2="-4" y2="-8" stroke="#3A5335" stroke-width="1"/>
        <line x1="0" y1="0" x2="4" y2="-9" stroke="#3A5335" stroke-width="1"/>
        <line x1="0" y1="0" x2="0" y2="-12" stroke="#3A5335" stroke-width="1"/>
        <circle cx="-4" cy="-8" r="3.2" fill="#BA2D2D"/>
        <circle cx="-5" cy="-9" r="1" fill="#FFFFFF" opacity="0.6"/>
        <circle cx="4" cy="-9" r="3.2" fill="#D44242"/>
        <circle cx="3" cy="-10" r="1" fill="#FFFFFF" opacity="0.6"/>
        <circle cx="0" cy="-13" r="3.4" fill="#C93434"/>
        <circle cx="-1" cy="-14" r="1" fill="#FFFFFF" opacity="0.6"/>
      </g><g transform="translate(40, 405) rotate(-85)">
        <!-- Flower Leaves -->
        <path d="M 0,0 C -6,-12 -16,-12 -14,0 C -12,8 -4,6 0,0 Z" fill="#4B663F"/>
        <path d="M 0,0 C 6,-12 16,-12 14,0 C 12,8 4,6 0,0 Z" fill="#4B663F"/>
        <!-- Petals -->
        <circle cx="0" cy="0" r="7.5" fill="#C93B3B"/>
        <circle cx="-3" cy="-2" r="4.5" fill="#E65858"/>
        <circle cx="3" cy="-2" r="4.5" fill="#E65858"/>
        <circle cx="0" cy="2" r="4.5" fill="#D64545"/>
        <circle cx="0" cy="0" r="2.8" fill="#FFF0D4"/>
        <circle cx="0" cy="0" r="1.4" fill="#C93B3B"/>
      </g><g transform="translate(52, 455) rotate(-95)">
        <path d="M -4,-2 C -8,-10 0,-14 0,-16 C 0,-14 8,-10 4,-2 Z" fill="#D94848"/>
        <path d="M -2,0 C -5,-6 0,-10 0,-12 C 0,-10 5,-6 2,0 Z" fill="#FF7070"/>
        <path d="M -5,0 C -4,-6 0,-8 0,-8 C 0,-8 4,-6 5,0 Z" fill="#4B663F"/>
      </g><g transform="translate(38, 505) rotate(-75)">
        <!-- Flower Leaves -->
        <path d="M 0,0 C -6,-12 -16,-12 -14,0 C -12,8 -4,6 0,0 Z" fill="#4B663F"/>
        <path d="M 0,0 C 6,-12 16,-12 14,0 C 12,8 4,6 0,0 Z" fill="#4B663F"/>
        <!-- Petals -->
        <circle cx="0" cy="0" r="7.5" fill="#C93B3B"/>
        <circle cx="-3" cy="-2" r="4.5" fill="#E65858"/>
        <circle cx="3" cy="-2" r="4.5" fill="#E65858"/>
        <circle cx="0" cy="2" r="4.5" fill="#D64545"/>
        <circle cx="0" cy="0" r="2.8" fill="#FFF0D4"/>
        <circle cx="0" cy="0" r="1.4" fill="#C93B3B"/>
      </g><g transform="translate(50, 555) rotate(-110)">
        <line x1="0" y1="0" x2="-4" y2="-8" stroke="#3A5335" stroke-width="1"/>
        <line x1="0" y1="0" x2="4" y2="-9" stroke="#3A5335" stroke-width="1"/>
        <line x1="0" y1="0" x2="0" y2="-12" stroke="#3A5335" stroke-width="1"/>
        <circle cx="-4" cy="-8" r="3.2" fill="#BA2D2D"/>
        <circle cx="-5" cy="-9" r="1" fill="#FFFFFF" opacity="0.6"/>
        <circle cx="4" cy="-9" r="3.2" fill="#D44242"/>
        <circle cx="3" cy="-10" r="1" fill="#FFFFFF" opacity="0.6"/>
        <circle cx="0" cy="-13" r="3.4" fill="#C93434"/>
        <circle cx="-1" cy="-14" r="1" fill="#FFFFFF" opacity="0.6"/>
      </g><g transform="translate(42, 605) rotate(-85)">
        <!-- Flower Leaves -->
        <path d="M 0,0 C -6,-12 -16,-12 -14,0 C -12,8 -4,6 0,0 Z" fill="#4B663F"/>
        <path d="M 0,0 C 6,-12 16,-12 14,0 C 12,8 4,6 0,0 Z" fill="#4B663F"/>
        <!-- Petals -->
        <circle cx="0" cy="0" r="7.5" fill="#C93B3B"/>
        <circle cx="-3" cy="-2" r="4.5" fill="#E65858"/>
        <circle cx="3" cy="-2" r="4.5" fill="#E65858"/>
        <circle cx="0" cy="2" r="4.5" fill="#D64545"/>
        <circle cx="0" cy="0" r="2.8" fill="#FFF0D4"/>
        <circle cx="0" cy="0" r="1.4" fill="#C93B3B"/>
      </g>
    <g fill="#435C38" stroke="none">
      <!-- Leaf pairs along border -->
      <path d="M 100,52 C 95,44 100,36 108,40 C 106,46 104,50 100,52 Z"/>
      <path d="M 140,46 C 135,38 140,30 148,34 C 146,40 144,44 140,46 Z"/>
      <path d="M 230,48 C 225,40 230,32 238,36 C 236,42 234,46 230,48 Z"/>
      <path d="M 310,48 C 305,40 310,32 318,36 C 316,42 314,46 310,48 Z"/>
      <path d="M 360,46 C 355,38 360,30 368,34 C 366,40 364,44 360,46 Z"/>
      <path d="M 400,52 C 395,44 400,36 408,40 C 406,46 404,50 400,52 Z"/>

      <path d="M 100,648 C 95,656 100,664 108,660 C 106,654 104,650 100,648 Z"/>
      <path d="M 140,654 C 135,662 140,670 148,666 C 146,660 144,656 140,654 Z"/>
      <path d="M 230,652 C 225,660 230,668 238,664 C 236,658 234,654 230,652 Z"/>
      <path d="M 310,652 C 305,660 310,668 318,664 C 316,658 314,654 310,652 Z"/>
      <path d="M 360,654 C 355,662 360,670 368,666 C 366,660 364,656 360,654 Z"/>
      <path d="M 400,648 C 395,656 400,664 408,660 C 406,654 404,650 400,648 Z"/>
    </g>
  </g>
      </g>

      <!-- Center Typography (Exact match to reference) -->
      <g text-anchor="middle">
        <!-- "join us for our" -->
        <text x="330" y="325" font-family="'Inter', sans-serif" font-size="10" font-weight="500" fill="#555555" letter-spacing="1.2">join us for our</text>

        <!-- "Annual" -->
        <text x="330" y="375" font-family="'Playfair Display', Georgia, serif" font-size="28" font-weight="600" fill="#242424" letter-spacing="2">Annual</text>
        <!-- "Charity" -->
        <text x="330" y="415" font-family="'Playfair Display', Georgia, serif" font-size="28" font-weight="600" fill="#242424" letter-spacing="2">Charity</text>
        <!-- "Gala" -->
        <text x="330" y="455" font-family="'Playfair Display', Georgia, serif" font-size="28" font-weight="600" fill="#242424" letter-spacing="2">Gala</text>

        <!-- "Friday, September 24 at 7 PM" -->
        <text x="330" y="525" font-family="'Inter', sans-serif" font-size="10.5" font-weight="500" fill="#444444" letter-spacing="0.5">Friday, September 24 at 7 PM</text>

        <!-- "Marina Ballroom" -->
        <text x="330" y="546" font-family="'Inter', sans-serif" font-size="10.5" font-weight="600" fill="#333333" letter-spacing="0.5">Marina Ballroom</text>

        <!-- "formal attire encouraged" -->
        <text x="330" y="585" font-family="'Inter', sans-serif" font-style="italic" font-size="9.5" font-weight="400" fill="#666666" letter-spacing="0.4">formal attire encouraged</text>
      </g>
    </g>

    <!-- Card Edge Crisp Hairline -->
    <rect x="140" y="140" width="380" height="532" rx="14" fill="none" stroke="rgba(0,0,0,0.08)" stroke-width="1"/>
  </g>

  <!-- 4. Top Badges & Heart Overlay (Evite UI Preview Element) -->
  <g transform="translate(30, 30)">
    <!-- Premium Badge -->
    <rect x="0" y="0" width="94" height="28" rx="6" fill="#FBF6FF" stroke="#D8B4FE" stroke-width="1"/>
    <!-- Crown icon -->
    <path d="M 12,18 L 14,11 L 18,15 L 22,11 L 24,18 Z" fill="#7E22CE"/>
    <text x="30" y="18.5" font-family="'Inter', sans-serif" font-size="11.5" font-weight="600" fill="#7E22CE">Premium</text>
  </g>

  <!-- Favorite Heart Icon Top Right -->
  <g transform="translate(545, 42)">
    <path d="M 0,-5 C -4,-12 -14,-10 -14,-2 C -14,6 0,14 0,14 C 0,14 14,6 14,-2 C 14,-10 4,-12 0,-5 Z" fill="none" stroke="#FFFFFF" stroke-width="2" stroke-linecap="round" stroke-linejoin="round" opacity="0.9"/>
  </g>
</svg>