<svg xmlns="http://www.w3.org/2000/svg" viewBox="0 0 600 800" width="100%" height="100%">
  <defs>
    <!-- Warm Linen Textured Surface Backdrop -->
    <linearGradient id="mps-backdrop" x1="0%" y1="0%" x2="100%" y2="100%">
      <stop offset="0%" stop-color="#F2EEE7"/>
      <stop offset="50%" stop-color="#EBE5DC"/>
      <stop offset="100%" stop-color="#DFD7CB"/>
    </linearGradient>

    <!-- Linen Fabric Weave Pattern -->
    <pattern id="mps-linen-weave" width="8" height="8" patternUnits="userSpaceOnUse">
      <path d="M 0,0 L 8,8 M 8,0 L 0,8" stroke="#D3C9BC" stroke-width="0.75" opacity="0.35"/>
    </pattern>

    <!-- Metallic Gold Foil Splatter Gradients -->
    <linearGradient id="mps-gold-grad-1" x1="0%" y1="0%" x2="100%" y2="100%">
      <stop offset="0%" stop-color="#B8860B"/>
      <stop offset="25%" stop-color="#D4AF37"/>
      <stop offset="50%" stop-color="#FFF3A8"/>
      <stop offset="75%" stop-color="#C59A27"/>
      <stop offset="100%" stop-color="#996E14"/>
    </linearGradient>

    <radialGradient id="mps-gold-radial" cx="35%" cy="35%" r="65%">
      <stop offset="0%" stop-color="#FFF8D1"/>
      <stop offset="40%" stop-color="#E5C158"/>
      <stop offset="75%" stop-color="#C2932E"/>
      <stop offset="100%" stop-color="#8C6314"/>
    </radialGradient>

    <!-- Jet Black Envelope Gradient -->
    <linearGradient id="mps-black-env" x1="0%" y1="0%" x2="100%" y2="100%">
      <stop offset="0%" stop-color="#242424"/>
      <stop offset="50%" stop-color="#181818"/>
      <stop offset="100%" stop-color="#0E0E0E"/>
    </linearGradient>

    <!-- Shadows -->
    <filter id="mps-env-shadow" x="-30%" y="-20%" width="160%" height="150%">
      <feDropShadow dx="-6" dy="16" stdDeviation="16" flood-color="#000000" flood-opacity="0.32"/>
      <feDropShadow dx="-1" dy="4" stdDeviation="6" flood-color="#000000" flood-opacity="0.16"/>
    </filter>

    <filter id="mps-card-shadow" x="-30%" y="-20%" width="160%" height="150%">
      <feDropShadow dx="2" dy="16" stdDeviation="18" flood-color="#000000" flood-opacity="0.32"/>
      <feDropShadow dx="0" dy="4" stdDeviation="5" flood-color="#000000" flood-opacity="0.14"/>
    </filter>

    <clipPath id="mps-card-clip">
      <rect x="150" y="140" width="370" height="520" rx="14"/>
    </clipPath>
  </defs>

  <!-- 1. BACKDROP: Warm linen textured surface -->
  <rect width="600" height="800" fill="url(#mps-backdrop)"/>
  <rect width="600" height="800" fill="url(#mps-linen-weave)"/>

  <!-- 2. ENVELOPE: Matte Jet Black Envelope with open triangular flap on Left -->
  <g filter="url(#mps-env-shadow)">
    <!-- Pocket Body -->
    <rect x="70" y="210" width="410" height="470" rx="16" fill="url(#mps-black-env)"/>
    <!-- Open Triangular Flap Pointing UP-LEFT -->
    <path d="M 70,290 L 135,115 L 360,290 Z" fill="url(#mps-black-env)"/>
    <!-- Inner Throat / Crease -->
    <path d="M 85,285 L 140,135 L 340,285 Z" fill="#111111"/>
    <line x1="70" y1="290" x2="360" y2="290" stroke="#000000" stroke-width="2.5" opacity="0.4"/>
  </g>

  <!-- 3. INVITATION CARD: Soft Off-White with Gold Splatter & Central Beige Block -->
  <g filter="url(#mps-card-shadow)">
    <g clip-path="url(#mps-card-clip)">
      <!-- Card surface -->
      <rect x="150" y="140" width="370" height="520" rx="14" fill="#FAF8F5"/>

      <!-- Splatter Elements: Scattered Metallic Gold Dots, Droplets & Splotches -->
      <g fill="url(#mps-gold-radial)">
        <!-- Top border splatters -->
        <circle cx="180" cy="165" r="7"/>
        <circle cx="168" cy="180" r="3.5"/>
        <circle cx="195" cy="155" r="4"/>
        <circle cx="215" cy="175" r="8.5"/>
        <circle cx="230" cy="160" r="3"/>
        <circle cx="265" cy="170" r="10"/>
        <circle cx="285" cy="155" r="5"/>
        <circle cx="310" cy="175" r="6"/>
        <circle cx="340" cy="160" r="9"/>
        <circle cx="370" cy="175" r="4.5"/>
        <circle cx="400" cy="165" r="11"/>
        <circle cx="420" cy="150" r="4"/>
        <circle cx="445" cy="170" r="8"/>
        <circle cx="475" cy="160" r="5.5"/>
        <circle cx="495" cy="180" r="9"/>
        <circle cx="505" cy="165" r="3.5"/>

        <!-- Left border splatters -->
        <circle cx="165" cy="220" r="8"/>
        <circle cx="178" cy="240" r="4"/>
        <circle cx="160" cy="270" r="10.5"/>
        <circle cx="172" cy="305" r="5"/>
        <circle cx="165" cy="345" r="7.5"/>
        <circle cx="175" cy="380" r="3.8"/>
        <circle cx="160" cy="420" r="9"/>
        <circle cx="170" cy="455" r="5.5"/>
        <circle cx="162" cy="495" r="11"/>
        <circle cx="175" cy="535" r="4"/>
        <circle cx="165" cy="575" r="8.5"/>
        <circle cx="178" cy="610" r="6"/>

        <!-- Right border splatters -->
        <circle cx="505" cy="215" r="9"/>
        <circle cx="490" cy="250" r="5"/>
        <circle cx="508" cy="285" r="11"/>
        <circle cx="495" cy="325" r="4.5"/>
        <circle cx="505" cy="365" r="8"/>
        <circle cx="492" cy="405" r="6"/>
        <circle cx="506" cy="445" r="10"/>
        <circle cx="490" cy="485" r="4.5"/>
        <circle cx="505" cy="525" r="7.5"/>
        <circle cx="492" cy="565" r="9"/>
        <circle cx="508" cy="605" r="5.5"/>

        <!-- Bottom border splatters -->
        <circle cx="185" cy="635" r="7.5"/>
        <circle cx="215" cy="645" r="9"/>
        <circle cx="245" cy="630" r="5"/>
        <circle cx="280" cy="648" r="11"/>
        <circle cx="315" cy="635" r="6.5"/>
        <circle cx="355" cy="645" r="10"/>
        <circle cx="390" cy="630" r="4.5"/>
        <circle cx="430" cy="648" r="8.5"/>
        <circle cx="465" cy="635" r="6"/>
        <circle cx="490" cy="645" r="9"/>

        <!-- Organic Droplet Shapes -->
        <path d="M 240,185 Q 248,175 252,188 Q 248,198 240,185 Z"/>
        <path d="M 430,195 Q 436,182 444,196 Q 438,206 430,195 Z"/>
        <path d="M 185,290 Q 192,280 198,294 Q 190,302 185,290 Z"/>
        <path d="M 480,310 Q 488,298 495,312 Q 487,322 480,310 Z"/>
        <path d="M 188,440 Q 196,428 202,442 Q 194,452 188,440 Z"/>
        <path d="M 482,470 Q 490,458 498,472 Q 490,482 482,470 Z"/>
        <path d="M 230,625 Q 238,612 246,628 Q 237,638 230,625 Z"/>
        <path d="M 370,620 Q 378,608 386,622 Q 378,632 370,620 Z"/>

        <!-- Fine speckles / mist -->
        <circle cx="205" cy="210" r="1.5"/><circle cx="225" cy="225" r="2.2"/><circle cx="250" cy="215" r="1.2"/>
        <circle cx="420" cy="220" r="2"/><circle cx="445" cy="235" r="1.4"/><circle cx="465" cy="215" r="2.5"/>
        <circle cx="200" cy="360" r="1.8"/><circle cx="215" cy="385" r="2.4"/><circle cx="195" cy="410" r="1.5"/>
        <circle cx="470" cy="370" r="2"/><circle cx="455" cy="395" r="1.4"/><circle cx="475" cy="420" r="2.2"/>
        <circle cx="210" cy="580" r="2"/><circle cx="235" cy="595" r="1.5"/><circle cx="260" cy="585" r="2.4"/>
        <circle cx="410" cy="585" r="1.6"/><circle cx="435" cy="595" r="2.2"/><circle cx="460" cy="580" r="1.8"/>
      </g>

      <!-- Central Subtle Warm Beige Inset Block -->
      <rect x="210" y="225" width="250" height="350" rx="3" fill="#F7F1E7" opacity="0.95"/>

      <!-- Typography Centered Inside Inset Block -->
      <g text-anchor="middle">
        <!-- Header: "JOIN US" in clean serif uppercase spaced -->
        <text x="335" y="325" font-family="'Cinzel', 'Playfair Display', Georgia, serif" font-size="28" font-weight="600" fill="#1C1C1C" letter-spacing="4.5">JOIN US</text>

        <!-- Subtext: "Come raise a glass... we've got so much to celebrate!" (italic serif) -->
        <text x="335" y="390" font-family="'Playfair Display', Georgia, serif" font-style="italic" font-size="12" font-weight="400" fill="#4A4A4A">Come raise a glass... we&apos;ve got so</text>
        <text x="335" y="412" font-family="'Playfair Display', Georgia, serif" font-style="italic" font-size="12" font-weight="400" fill="#4A4A4A">much to celebrate!</text>

        <!-- Details: "Friday, February 3 at 7 PM | 835 South Hill St." -->
        <text x="335" y="480" font-family="'Montserrat', 'Inter', sans-serif" font-size="11" font-weight="400" fill="#5A5A5A" letter-spacing="0.3">Friday, February 3 at 7 PM</text>
        <text x="335" y="500" font-family="'Montserrat', 'Inter', sans-serif" font-size="11" font-weight="400" fill="#5A5A5A" letter-spacing="0.3">835 South Hill St.</text>
      </g>
    </g>
    <rect x="150" y="140" width="370" height="520" rx="14" fill="none" stroke="rgba(0,0,0,0.06)" stroke-width="1"/>
  </g>
</svg>